<mxfile host="app.diagrams.net" modified="2024-02-19T01:34:13.534Z" agent="Mozilla/5.0 (Windows NT 10.0; Win64; x64) AppleWebKit/537.36 (KHTML, like Gecko) Chrome/120.0.0.0 Safari/537.36 OPR/106.0.0.0" etag="0utYzTpgy5nSOslktU6w" version="23.1.5" type="device">
  <diagram name="Página-1" id="fR7e2d_nV36AZkr5bYju">
    <mxGraphModel dx="2446" dy="2038" grid="1" gridSize="10" guides="1" tooltips="1" connect="1" arrows="1" fold="1" page="1" pageScale="1" pageWidth="827" pageHeight="1169" math="0" shadow="0">
      <root>
        <mxCell id="0" />
        <mxCell id="1" parent="0" />
        <mxCell id="Px6Be6tLUBsVTGX8nc5K-2" value="Carrera    " style="swimlane;fontStyle=0;childLayout=stackLayout;horizontal=1;startSize=26;horizontalStack=0;resizeParent=1;resizeParentMax=0;resizeLast=0;collapsible=1;marginBottom=0;align=center;fontSize=14;" vertex="1" parent="1">
          <mxGeometry x="190" y="-390" width="160" height="116" as="geometry" />
        </mxCell>
        <mxCell id="Px6Be6tLUBsVTGX8nc5K-3" value="nomcarr VARCHAR (55)&lt;div&gt;&lt;br/&gt;&lt;/div&gt;" style="text;strokeColor=none;fillColor=none;spacingLeft=4;spacingRight=4;overflow=hidden;rotatable=0;points=[[0,0.5],[1,0.5]];portConstraint=eastwest;fontSize=12;whiteSpace=wrap;html=1;" vertex="1" parent="Px6Be6tLUBsVTGX8nc5K-2">
          <mxGeometry y="26" width="160" height="30" as="geometry" />
        </mxCell>
        <mxCell id="Px6Be6tLUBsVTGX8nc5K-4" value="codcarr VARCHAR (10)" style="text;strokeColor=none;fillColor=none;spacingLeft=4;spacingRight=4;overflow=hidden;rotatable=0;points=[[0,0.5],[1,0.5]];portConstraint=eastwest;fontSize=12;whiteSpace=wrap;html=1;" vertex="1" parent="Px6Be6tLUBsVTGX8nc5K-2">
          <mxGeometry y="56" width="160" height="30" as="geometry" />
        </mxCell>
        <mxCell id="Px6Be6tLUBsVTGX8nc5K-5" value="sede VARCHAR (20)" style="text;strokeColor=none;fillColor=none;spacingLeft=4;spacingRight=4;overflow=hidden;rotatable=0;points=[[0,0.5],[1,0.5]];portConstraint=eastwest;fontSize=12;whiteSpace=wrap;html=1;" vertex="1" parent="Px6Be6tLUBsVTGX8nc5K-2">
          <mxGeometry y="86" width="160" height="30" as="geometry" />
        </mxCell>
        <mxCell id="Px6Be6tLUBsVTGX8nc5K-6" value="Estudiante" style="swimlane;fontStyle=0;childLayout=stackLayout;horizontal=1;startSize=26;horizontalStack=0;resizeParent=1;resizeParentMax=0;resizeLast=0;collapsible=1;marginBottom=0;align=center;fontSize=14;" vertex="1" parent="1">
          <mxGeometry x="440" y="-90" width="280" height="210" as="geometry" />
        </mxCell>
        <mxCell id="Px6Be6tLUBsVTGX8nc5K-7" value="codest VARCHAR(10)" style="text;strokeColor=none;fillColor=none;spacingLeft=4;spacingRight=4;overflow=hidden;rotatable=0;points=[[0,0.5],[1,0.5]];portConstraint=eastwest;fontSize=12;whiteSpace=wrap;html=1;" vertex="1" parent="Px6Be6tLUBsVTGX8nc5K-6">
          <mxGeometry y="26" width="280" height="30" as="geometry" />
        </mxCell>
        <mxCell id="Px6Be6tLUBsVTGX8nc5K-8" value="Primnom VARCHAR (15)" style="text;strokeColor=none;fillColor=none;spacingLeft=4;spacingRight=4;overflow=hidden;rotatable=0;points=[[0,0.5],[1,0.5]];portConstraint=eastwest;fontSize=12;whiteSpace=wrap;html=1;" vertex="1" parent="Px6Be6tLUBsVTGX8nc5K-6">
          <mxGeometry y="56" width="280" height="30" as="geometry" />
        </mxCell>
        <mxCell id="Px6Be6tLUBsVTGX8nc5K-9" value="Segnom VARCHAR (15)&lt;br&gt;&lt;br&gt;Primape VARCHAR (15)&lt;br&gt;&lt;br&gt;Segape VARCHAR (15)&lt;br&gt;&lt;br&gt;Municipios_codmun INT (5)" style="text;strokeColor=none;fillColor=none;spacingLeft=4;spacingRight=4;overflow=hidden;rotatable=0;points=[[0,0.5],[1,0.5]];portConstraint=eastwest;fontSize=12;whiteSpace=wrap;html=1;" vertex="1" parent="Px6Be6tLUBsVTGX8nc5K-6">
          <mxGeometry y="86" width="280" height="124" as="geometry" />
        </mxCell>
        <mxCell id="Px6Be6tLUBsVTGX8nc5K-10" value="Identificacion" style="swimlane;fontStyle=0;childLayout=stackLayout;horizontal=1;startSize=26;horizontalStack=0;resizeParent=1;resizeParentMax=0;resizeLast=0;collapsible=1;marginBottom=0;align=center;fontSize=14;" vertex="1" parent="1">
          <mxGeometry x="920" y="-28" width="160" height="86" as="geometry" />
        </mxCell>
        <mxCell id="Px6Be6tLUBsVTGX8nc5K-11" value="ident VARCHAR (10)" style="text;strokeColor=none;fillColor=none;spacingLeft=4;spacingRight=4;overflow=hidden;rotatable=0;points=[[0,0.5],[1,0.5]];portConstraint=eastwest;fontSize=12;whiteSpace=wrap;html=1;" vertex="1" parent="Px6Be6tLUBsVTGX8nc5K-10">
          <mxGeometry y="26" width="160" height="30" as="geometry" />
        </mxCell>
        <mxCell id="Px6Be6tLUBsVTGX8nc5K-12" value="TipoId VARCHAR (10)" style="text;strokeColor=none;fillColor=none;spacingLeft=4;spacingRight=4;overflow=hidden;rotatable=0;points=[[0,0.5],[1,0.5]];portConstraint=eastwest;fontSize=12;whiteSpace=wrap;html=1;" vertex="1" parent="Px6Be6tLUBsVTGX8nc5K-10">
          <mxGeometry y="56" width="160" height="30" as="geometry" />
        </mxCell>
        <mxCell id="Px6Be6tLUBsVTGX8nc5K-14" value="Telefono " style="swimlane;fontStyle=0;childLayout=stackLayout;horizontal=1;startSize=26;horizontalStack=0;resizeParent=1;resizeParentMax=0;resizeLast=0;collapsible=1;marginBottom=0;align=center;fontSize=14;" vertex="1" parent="1">
          <mxGeometry x="710" y="270" width="200" height="116" as="geometry" />
        </mxCell>
        <mxCell id="Px6Be6tLUBsVTGX8nc5K-15" value="telefono1 VARCHAR (10)&lt;div&gt;&lt;br/&gt;&lt;/div&gt;" style="text;strokeColor=none;fillColor=none;spacingLeft=4;spacingRight=4;overflow=hidden;rotatable=0;points=[[0,0.5],[1,0.5]];portConstraint=eastwest;fontSize=12;whiteSpace=wrap;html=1;" vertex="1" parent="Px6Be6tLUBsVTGX8nc5K-14">
          <mxGeometry y="26" width="200" height="30" as="geometry" />
        </mxCell>
        <mxCell id="Px6Be6tLUBsVTGX8nc5K-16" value="telefono2 VARCHAR (10)" style="text;strokeColor=none;fillColor=none;spacingLeft=4;spacingRight=4;overflow=hidden;rotatable=0;points=[[0,0.5],[1,0.5]];portConstraint=eastwest;fontSize=12;whiteSpace=wrap;html=1;" vertex="1" parent="Px6Be6tLUBsVTGX8nc5K-14">
          <mxGeometry y="56" width="200" height="30" as="geometry" />
        </mxCell>
        <mxCell id="Px6Be6tLUBsVTGX8nc5K-17" value="Estudiante_codest VARCHAR (10)" style="text;strokeColor=none;fillColor=none;spacingLeft=4;spacingRight=4;overflow=hidden;rotatable=0;points=[[0,0.5],[1,0.5]];portConstraint=eastwest;fontSize=12;whiteSpace=wrap;html=1;" vertex="1" parent="Px6Be6tLUBsVTGX8nc5K-14">
          <mxGeometry y="86" width="200" height="30" as="geometry" />
        </mxCell>
        <mxCell id="Px6Be6tLUBsVTGX8nc5K-18" value="Correo" style="swimlane;fontStyle=0;childLayout=stackLayout;horizontal=1;startSize=26;horizontalStack=0;resizeParent=1;resizeParentMax=0;resizeLast=0;collapsible=1;marginBottom=0;align=center;fontSize=14;" vertex="1" parent="1">
          <mxGeometry x="370" y="260" width="260" height="170" as="geometry" />
        </mxCell>
        <mxCell id="Px6Be6tLUBsVTGX8nc5K-19" value="Correo1 VARCHAR (15)&lt;div&gt;&lt;br/&gt;&lt;/div&gt;" style="text;strokeColor=none;fillColor=none;spacingLeft=4;spacingRight=4;overflow=hidden;rotatable=0;points=[[0,0.5],[1,0.5]];portConstraint=eastwest;fontSize=12;whiteSpace=wrap;html=1;" vertex="1" parent="Px6Be6tLUBsVTGX8nc5K-18">
          <mxGeometry y="26" width="260" height="30" as="geometry" />
        </mxCell>
        <mxCell id="Px6Be6tLUBsVTGX8nc5K-20" value="Corre2 VARCHAR (15)" style="text;strokeColor=none;fillColor=none;spacingLeft=4;spacingRight=4;overflow=hidden;rotatable=0;points=[[0,0.5],[1,0.5]];portConstraint=eastwest;fontSize=12;whiteSpace=wrap;html=1;" vertex="1" parent="Px6Be6tLUBsVTGX8nc5K-18">
          <mxGeometry y="56" width="260" height="30" as="geometry" />
        </mxCell>
        <mxCell id="Px6Be6tLUBsVTGX8nc5K-21" value="Correo3 VARCHAR (15)&lt;br&gt;&lt;br&gt;Estudiante_codest VARCHAR (10)" style="text;strokeColor=none;fillColor=none;spacingLeft=4;spacingRight=4;overflow=hidden;rotatable=0;points=[[0,0.5],[1,0.5]];portConstraint=eastwest;fontSize=12;whiteSpace=wrap;html=1;" vertex="1" parent="Px6Be6tLUBsVTGX8nc5K-18">
          <mxGeometry y="86" width="260" height="84" as="geometry" />
        </mxCell>
        <mxCell id="Px6Be6tLUBsVTGX8nc5K-22" value="CarreraEstudiante" style="swimlane;fontStyle=0;childLayout=stackLayout;horizontal=1;startSize=26;horizontalStack=0;resizeParent=1;resizeParentMax=0;resizeLast=0;collapsible=1;marginBottom=0;align=center;fontSize=14;" vertex="1" parent="1">
          <mxGeometry x="470" y="-400" width="200" height="116" as="geometry" />
        </mxCell>
        <mxCell id="Px6Be6tLUBsVTGX8nc5K-23" value="Estudiante_codest VARCHAR (10(" style="text;strokeColor=none;fillColor=none;spacingLeft=4;spacingRight=4;overflow=hidden;rotatable=0;points=[[0,0.5],[1,0.5]];portConstraint=eastwest;fontSize=12;whiteSpace=wrap;html=1;" vertex="1" parent="Px6Be6tLUBsVTGX8nc5K-22">
          <mxGeometry y="26" width="200" height="30" as="geometry" />
        </mxCell>
        <mxCell id="Px6Be6tLUBsVTGX8nc5K-24" value="Carrera_codcarr VARCHAR (10)" style="text;strokeColor=none;fillColor=none;spacingLeft=4;spacingRight=4;overflow=hidden;rotatable=0;points=[[0,0.5],[1,0.5]];portConstraint=eastwest;fontSize=12;whiteSpace=wrap;html=1;" vertex="1" parent="Px6Be6tLUBsVTGX8nc5K-22">
          <mxGeometry y="56" width="200" height="30" as="geometry" />
        </mxCell>
        <mxCell id="Px6Be6tLUBsVTGX8nc5K-25" value="Semestre INT(2)" style="text;strokeColor=none;fillColor=none;spacingLeft=4;spacingRight=4;overflow=hidden;rotatable=0;points=[[0,0.5],[1,0.5]];portConstraint=eastwest;fontSize=12;whiteSpace=wrap;html=1;" vertex="1" parent="Px6Be6tLUBsVTGX8nc5K-22">
          <mxGeometry y="86" width="200" height="30" as="geometry" />
        </mxCell>
        <mxCell id="Px6Be6tLUBsVTGX8nc5K-30" value="" style="endArrow=classic;html=1;rounded=0;entryX=1.019;entryY=0.867;entryDx=0;entryDy=0;entryPerimeter=0;exitX=0;exitY=1.2;exitDx=0;exitDy=0;exitPerimeter=0;" edge="1" parent="1" source="Px6Be6tLUBsVTGX8nc5K-23" target="Px6Be6tLUBsVTGX8nc5K-3">
          <mxGeometry width="50" height="50" relative="1" as="geometry">
            <mxPoint x="420" y="-350" as="sourcePoint" />
            <mxPoint x="470" y="-400" as="targetPoint" />
          </mxGeometry>
        </mxCell>
        <mxCell id="Px6Be6tLUBsVTGX8nc5K-33" value="" style="endArrow=none;html=1;rounded=0;entryX=0.529;entryY=1;entryDx=0;entryDy=0;entryPerimeter=0;exitX=0.5;exitY=0;exitDx=0;exitDy=0;" edge="1" parent="1" source="Px6Be6tLUBsVTGX8nc5K-18" target="Px6Be6tLUBsVTGX8nc5K-9">
          <mxGeometry width="50" height="50" relative="1" as="geometry">
            <mxPoint x="510" y="240" as="sourcePoint" />
            <mxPoint x="560" y="190" as="targetPoint" />
          </mxGeometry>
        </mxCell>
        <mxCell id="Px6Be6tLUBsVTGX8nc5K-34" value="" style="endArrow=none;html=1;rounded=0;entryX=0.729;entryY=1;entryDx=0;entryDy=0;entryPerimeter=0;exitX=0.5;exitY=0;exitDx=0;exitDy=0;" edge="1" parent="1" source="Px6Be6tLUBsVTGX8nc5K-14" target="Px6Be6tLUBsVTGX8nc5K-9">
          <mxGeometry width="50" height="50" relative="1" as="geometry">
            <mxPoint x="780" y="230" as="sourcePoint" />
            <mxPoint x="830" y="180" as="targetPoint" />
          </mxGeometry>
        </mxCell>
        <mxCell id="Px6Be6tLUBsVTGX8nc5K-35" value="" style="endArrow=none;html=1;rounded=0;entryX=0;entryY=0.5;entryDx=0;entryDy=0;exitX=1.018;exitY=0.105;exitDx=0;exitDy=0;exitPerimeter=0;" edge="1" parent="1" source="Px6Be6tLUBsVTGX8nc5K-9" target="Px6Be6tLUBsVTGX8nc5K-11">
          <mxGeometry width="50" height="50" relative="1" as="geometry">
            <mxPoint x="820" y="40" as="sourcePoint" />
            <mxPoint x="870" y="-10" as="targetPoint" />
          </mxGeometry>
        </mxCell>
        <mxCell id="Px6Be6tLUBsVTGX8nc5K-36" value="Departamentos" style="swimlane;fontStyle=0;childLayout=stackLayout;horizontal=1;startSize=26;horizontalStack=0;resizeParent=1;resizeParentMax=0;resizeLast=0;collapsible=1;marginBottom=0;align=center;fontSize=14;" vertex="1" parent="1">
          <mxGeometry x="-250" y="-28" width="260" height="86" as="geometry" />
        </mxCell>
        <mxCell id="Px6Be6tLUBsVTGX8nc5K-37" value="coddep INT(2)" style="text;strokeColor=none;fillColor=none;spacingLeft=4;spacingRight=4;overflow=hidden;rotatable=0;points=[[0,0.5],[1,0.5]];portConstraint=eastwest;fontSize=12;whiteSpace=wrap;html=1;" vertex="1" parent="Px6Be6tLUBsVTGX8nc5K-36">
          <mxGeometry y="26" width="260" height="30" as="geometry" />
        </mxCell>
        <mxCell id="Px6Be6tLUBsVTGX8nc5K-38" value="nomdep VARCHAR (20)" style="text;strokeColor=none;fillColor=none;spacingLeft=4;spacingRight=4;overflow=hidden;rotatable=0;points=[[0,0.5],[1,0.5]];portConstraint=eastwest;fontSize=12;whiteSpace=wrap;html=1;" vertex="1" parent="Px6Be6tLUBsVTGX8nc5K-36">
          <mxGeometry y="56" width="260" height="30" as="geometry" />
        </mxCell>
        <mxCell id="Px6Be6tLUBsVTGX8nc5K-40" value="Municipio " style="swimlane;fontStyle=0;childLayout=stackLayout;horizontal=1;startSize=26;horizontalStack=0;resizeParent=1;resizeParentMax=0;resizeLast=0;collapsible=1;marginBottom=0;align=center;fontSize=14;" vertex="1" parent="1">
          <mxGeometry x="80" y="-45" width="260" height="120" as="geometry" />
        </mxCell>
        <mxCell id="Px6Be6tLUBsVTGX8nc5K-41" value="codmun INT (5)" style="text;strokeColor=none;fillColor=none;spacingLeft=4;spacingRight=4;overflow=hidden;rotatable=0;points=[[0,0.5],[1,0.5]];portConstraint=eastwest;fontSize=12;whiteSpace=wrap;html=1;" vertex="1" parent="Px6Be6tLUBsVTGX8nc5K-40">
          <mxGeometry y="26" width="260" height="30" as="geometry" />
        </mxCell>
        <mxCell id="Px6Be6tLUBsVTGX8nc5K-42" value="nommun VARCHAR (20)" style="text;strokeColor=none;fillColor=none;spacingLeft=4;spacingRight=4;overflow=hidden;rotatable=0;points=[[0,0.5],[1,0.5]];portConstraint=eastwest;fontSize=12;whiteSpace=wrap;html=1;" vertex="1" parent="Px6Be6tLUBsVTGX8nc5K-40">
          <mxGeometry y="56" width="260" height="30" as="geometry" />
        </mxCell>
        <mxCell id="Px6Be6tLUBsVTGX8nc5K-43" value="Departamentos_coddep INT (2)&lt;div&gt;&lt;br/&gt;&lt;/div&gt;" style="text;strokeColor=none;fillColor=none;spacingLeft=4;spacingRight=4;overflow=hidden;rotatable=0;points=[[0,0.5],[1,0.5]];portConstraint=eastwest;fontSize=12;whiteSpace=wrap;html=1;" vertex="1" parent="Px6Be6tLUBsVTGX8nc5K-40">
          <mxGeometry y="86" width="260" height="34" as="geometry" />
        </mxCell>
        <mxCell id="Px6Be6tLUBsVTGX8nc5K-44" value="" style="endArrow=classic;html=1;rounded=0;entryX=0;entryY=0.177;entryDx=0;entryDy=0;entryPerimeter=0;exitX=1.008;exitY=0.167;exitDx=0;exitDy=0;exitPerimeter=0;" edge="1" parent="1" source="Px6Be6tLUBsVTGX8nc5K-42" target="Px6Be6tLUBsVTGX8nc5K-9">
          <mxGeometry width="50" height="50" relative="1" as="geometry">
            <mxPoint x="310" y="170" as="sourcePoint" />
            <mxPoint x="360" y="120" as="targetPoint" />
          </mxGeometry>
        </mxCell>
        <mxCell id="Px6Be6tLUBsVTGX8nc5K-45" value="" style="endArrow=classic;html=1;rounded=0;entryX=-0.008;entryY=0.2;entryDx=0;entryDy=0;entryPerimeter=0;exitX=1;exitY=0.5;exitDx=0;exitDy=0;" edge="1" parent="1" source="Px6Be6tLUBsVTGX8nc5K-37" target="Px6Be6tLUBsVTGX8nc5K-42">
          <mxGeometry width="50" height="50" relative="1" as="geometry">
            <mxPoint x="-40" y="120" as="sourcePoint" />
            <mxPoint x="10" y="70" as="targetPoint" />
          </mxGeometry>
        </mxCell>
        <mxCell id="Px6Be6tLUBsVTGX8nc5K-46" value="" style="endArrow=classic;html=1;rounded=0;entryX=0.545;entryY=1;entryDx=0;entryDy=0;entryPerimeter=0;" edge="1" parent="1" target="Px6Be6tLUBsVTGX8nc5K-25">
          <mxGeometry width="50" height="50" relative="1" as="geometry">
            <mxPoint x="580" y="-90" as="sourcePoint" />
            <mxPoint x="630" y="-140" as="targetPoint" />
          </mxGeometry>
        </mxCell>
      </root>
    </mxGraphModel>
  </diagram>
</mxfile>
